<svg xmlns="http://www.w3.org/2000/svg" width="19.22" height="27.335" viewBox="0 0 19.22 27.335">
  <g id="placeholder" transform="translate(-76)">
    <g id="Group_53" data-name="Group 53" transform="translate(76)">
      <g id="Group_52" data-name="Group 52" transform="translate(0)">
        <path id="Path_50" data-name="Path 50" d="M85.61,0a9.612,9.612,0,0,0-8.176,14.664l7.629,12.293a.8.8,0,0,0,.68.379h.006a.8.8,0,0,0,.681-.389l7.434-12.412A9.612,9.612,0,0,0,85.61,0Zm6.88,13.711L85.731,25,78.8,13.82a8.014,8.014,0,1,1,13.694-.108Z" transform="translate(-76)" fill="#929292"/>
      </g>
    </g>
    <g id="Group_55" data-name="Group 55" transform="translate(80.805 4.805)">
      <g id="Group_54" data-name="Group 54">
        <path id="Path_51" data-name="Path 51" d="M170.805,90a4.805,4.805,0,1,0,4.805,4.805A4.811,4.811,0,0,0,170.805,90Zm0,8.019a3.214,3.214,0,1,1,3.209-3.214A3.216,3.216,0,0,1,170.805,98.019Z" transform="translate(-166 -90)" fill="#929292"/>
      </g>
    </g>
  </g>
</svg>
